# AST/ASF file generated using VICON BodyLanguage
# -----------------------------------------------
:version 1.10
:name VICON
:units
  mass 1.0
  length 0.45
  angle deg
:documentation
   .ast/.asf automatically generated from VICON data using
   VICON BodyBuilder and BodyLanguage model FoxedUp or BRILLIANT.MOD
:root
   order TX TY TZ RX RY RZ
   axis XYZ
   position 0 0 0  
   orientation 0 0 0 
:bonedata
  begin
     id 1 
     name lhipjoint
     direction 0.677091 -0.635792 0.370561 
     length 2.74323 
     axis 0 0 0  XYZ
  end
  begin
     id 2 
     name lfemur
     direction 0.34202 -0.939693 0  
     length 7.44995  
     axis 0 0 20  XYZ
    dof rx ry rz
    limits (-160.0 20.0)
           (-70.0 70.0)
           (-60.0 70.0)
  end
  begin
     id 3 
     name ltibia
     direction 0.34202 -0.939693 0   
     length 7.34467   
     axis 0 0 20   XYZ
    dof rx
    limits (-10.0 170.0)
  end
  begin
     id 4 
     name lfoot
     direction 0.101953 -0.280114 0.954537   
     length 1.72105   
     axis -90 7.62852e-016 20   XYZ
    dof rx rz
    limits (-45.0 90.0)
           (-70.0 20.0)
  end
  begin
     id 5 
     name ltoes
     direction 1.53537e-011 -4.21915e-011 1   
     length 0.865872   
     axis -90 7.62852e-016 20   XYZ
    dof rx
    limits (-90.0 20.0)
  end
  begin
     id 6 
     name rhipjoint
     direction -0.695735 -0.620586 0.361699   
     length 2.81045  
     axis 0 0 0  XYZ 
  end
  begin
     id 7 
     name rfemur
     direction -0.34202 -0.939693 0   
     length 7.29387   
     axis 0 0 -20   XYZ
    dof rx ry rz
    limits (-160.0 20.0)
           (-70.0 70.0)
           (-70.0 60.0)
  end
  begin
     id 8 
     name rtibia
     direction -0.34202 -0.939693 0   
     length 7.44935   
     axis 0 0 -20   XYZ
    dof rx
    limits (-10.0 170.0)
 end
 begin
     id 9 
     name rfoot
     direction -0.104163 -0.286184 0.952496   
     length 1.77731  
     axis -90 -7.62852e-016 -20   XYZ
    dof rx rz
    limits (-45.0 90.0)
           (-20.0 70.0)
  end
  begin
     id 10 
     name rtoes
     direction -1.5355e-011 -4.21888e-011 1   
     length 0.892424   
     axis -90 -7.62852e-016 -20   XYZ
    dof rx
    limits (-90.0 20.0)
  end
  begin
     id 11 
     name lowerback
     direction 0.0100202 0.997226 -0.0737589   
     length 2.16892   
     axis 0 0 0   XYZ
    dof rx ry rz
    limits (-20.0 45.0)
           (-30.0 30.0)
           (-30.0 30.0)
  end
  begin
     id 12 
     name upperback
     direction 0.00432398 0.999988 -0.00215019   
     length 2.17326   
     axis 0 0 0   XYZ
    dof rx ry rz
    limits (-20.0 45.0)
           (-30.0 30.0)
           (-30.0 30.0)
  end
  begin
     id 13 
     name thorax
     direction -0.00195047 0.999485 0.0320434   
     length 2.18139   
     axis 0 0 0   XYZ
    dof rx ry rz
    limits (-20.0 45.0)
           (-30.0 30.0)
           (-30.0 30.0)
  end
  begin
     id 14 
     name lowerneck
     direction 0.00782762 0.986241 0.165128   
     length 1.88415   
     axis 0 0 0   XYZ
    dof rx ry rz
    limits (-20.0 45.0)
           (-30.0 30.0)
           (-30.0 30.0)
  end
  begin
     id 15 
     name upperneck
     direction 0.00988667 0.981098 -0.193258   
     length 1.9242   
     axis 0 0 0   XYZ
    dof rx ry rz
    limits (-20.0 45.0)
           (-30.0 30.0)
           (-30.0 30.0)
  end
  begin
     id 16
     name head
     direction 0.00252199 0.996513 -0.0833958  
     length 1.93887  
     axis 0 0 0   XYZ
    dof rx ry rz
    limits (-20.0 45.0)
           (-30.0 30.0)
           (-30.0 30.0)
  end
  begin
     id 17 
     name lclavicle
     direction 0.929492 0.368193 -0.0218667  
     length 3.5955  
     axis 0 0 0   XYZ
    dof ry rz
    limits (-20.0 10.0)
           (0.0 20.0)
  end
  begin
     id 18 
     name lhumerus
     direction 1 -4.48972e-011 1.41911e-027   
     length 5.2795   
     axis 180 -30 -90   XYZ
    dof rx ry rz
    limits (-60.0 90.0)
           (-90.0 90.0)
           (-90.0 90.0)
  end
  begin
     id 19
     name lradius
     direction 1 -4.48963e-011 7.05772e-027   
     length 3.53504   
     axis 180 -30 -90   XYZ
    dof rx
    limits (-10.0 170.0)
  end
  begin
     id 20
     name lwrist
     direction 1 -4.48957e-011 9.54866e-027   
     length 1.76752   
     axis -7.69462e-015 90 90   XYZ
    dof ry
    limits (-180.0 0.0)
 end
  begin
     id 21 
     name lhand
     direction 1 -4.48979e-011 1.90973e-026   
     length 0.667948   
     axis -1.21857e-014 90 90   XYZ
    dof rx rz
    limits (-90.0 90.0)
           (-45.0 45.0)
  end
  begin
     id 22 
     name lfingers
     direction 1 -4.48987e-011 3.81946e-026   
     length 0.538517   
     axis -2.43714e-014 90 90   XYZ
    dof rx
    limits (0.0 90.0)
  end
  begin
     id 23
     name lthumb
     direction 0.707107 -6.34962e-011 0.707107   
     length 0.773206   
     axis -90 45 2.85299e-015   XYZ
    dof rx rz
    limits (-45.0 45.0)
           (-45.0 45.0)
  end
  begin
     id 24 
     name rclavicle
     direction -0.898763 0.414256 -0.143584   
     length 3.5176  
     axis 0 0 0   XYZ 
    dof ry rz
    limits (-10.0 20.0)
           (-20.0 0.0)
  end
  begin
     id 25 
     name rhumerus
     direction -1 -4.48971e-011 1.129e-027  
     length 5.25035   
     axis 180 30 90   XYZ
    dof rx ry rz
    limits (-90.0 60.0)
           (-90.0 90.0)
           (-90.0 90.0)
  end
  begin
     id 26 
     name rradius
     direction -1 -4.48955e-011 6.34664e-027   
     length 3.58884   
     axis 180 30 90   XYZ
    dof rx
    limits (-10.0 170.0)
  end
  begin
     id 27 
     name rwrist
     direction -1 -4.48966e-011 9.54866e-027   
     length 1.79442   
     axis -7.69462e-015 -90 -90   XYZ
    dof ry
    limits (-180.0 0.0)
  end
  begin
     id 28
     name rhand
     direction -1 -4.48973e-011 1.90973e-026   
     length 0.779235   
     axis -1.21857e-014 -90 -90   XYZ
    dof rx rz
    limits (-90.0 90.0)
           (-45.0 45.0)
  end
  begin
     id 29
     name rfingers
     direction -1 -4.48984e-011 3.81946e-026   
     length 0.62824   
     axis -2.43714e-014 -90 -90   XYZ
    dof rx
    limits (0.0 90.0)
  end
  begin
     id 30
     name rthumb
     direction -0.707107 -6.34968e-011 0.707107   
     length 0.90203   
     axis -90 -45 -2.85299e-015   XYZ
    dof rx rz
    limits (-45.0 45.0)
           (-45.0 45.0)
  end
:hierarchy
  begin
    root lhipjoint rhipjoint lowerback
    lhipjoint lfemur
    lfemur ltibia
    ltibia lfoot
    lfoot ltoes
    rhipjoint rfemur
    rfemur rtibia
    rtibia rfoot
    rfoot rtoes
    lowerback upperback
    upperback thorax
    thorax lowerneck lclavicle rclavicle
    lowerneck upperneck
    upperneck head
    lclavicle lhumerus
    lhumerus lradius
    lradius lwrist
    lwrist lhand lthumb
    lhand lfingers
    rclavicle rhumerus
    rhumerus rradius
    rradius rwrist
    rwrist rhand rthumb
    rhand rfingers
  end

#!OML:ASF I:\Random Stuff\random\construction\7_22_03\Session 2\subj1.ASF
:FULLY-SPECIFIED
:DEGREES
358
root 4.45701 17.7176 -8.08458 11.5737 -30.4748 -3.04501
lowerback 7.38503 -0.418135 -1.25274
upperback 3.78929 -0.691858 -2.08457
thorax -0.241295 -0.359227 -1.39006
lowerneck -19.51 3.32511 0.316921
upperneck 41.9879 6.66924 -4.61221
head 19.8869 1.75877 -0.953122
rclavicle -1.52667e-013 7.15625e-014
rhumerus -16.6127 24.0842 -71.3537
rradius 80.0635
rwrist 11.2364
rhand -10.5432 26.3378
rfingers 7.12502
rthumb 15.4605 -3.0639
lclavicle -1.52667e-013 7.15625e-014
lhumerus -12.0631 -69.6287 93.2949
lradius 80.5963
lwrist -3.63229
lhand -28.2927 42.357
lfingers 7.12502
lthumb -1.6686 432.33
rfemur -13.1501 4.58304 15.5955
rtibia 9.64124
rfoot -4.71311 -5.73563
rtoes -12.7446
lfemur -19.8614 -8.43868 -9.34645
ltibia 21.1172
lfoot -11.1097 13.111
ltoes -31.0993
359
root 4.41241 17.7186 -8.14219 11.6043 -30.1012 -3.07629
lowerback 7.39233 -0.464775 -0.906589
upperback 3.78164 -0.728692 -1.91698
thorax -0.256212 -0.37395 -1.40884
lowerneck -19.6036 3.39812 0.0554195
upperneck 41.8661 6.89353 -4.59209
head 19.831 1.81083 -0.840285
rclavicle -1.02573e-013 9.54166e-015
rhumerus -15.2832 25.4232 -70.6279
rradius 79.5846
rwrist 11.2841
rhand -11.1393 27.3242
rfingers 7.12502
rthumb 14.8863 -2.12093
lclavicle -1.02573e-013 9.54166e-015
lhumerus -10.7384 -70.8464 92.4856
lradius 79.7862
lwrist -4.11455
lhand -27.6197 41.9248
lfingers 7.12502
lthumb -1.01862 431.902
rfemur -12.4745 4.37498 16.0701
rtibia 8.33533
rfoot -4.18794 -6.13571
rtoes -13.8535
lfemur -19.998 -8.79582 -8.94921
ltibia 20.9239
lfoot -10.8784 13.1299
ltoes -31.6544
360
root 4.36805 17.726 -8.20625 11.7109 -29.7677 -3.20115
lowerback 7.45319 -0.463672 -0.336938
upperback 3.79843 -0.689581 -1.81926
thorax -0.277283 -0.347652 -1.63075
lowerneck -19.6557 3.38964 0.138206
upperneck 41.6812 6.90145 -4.71669
head 19.7393 1.81977 -0.907583
rclavicle -5.84427e-014 -8.74653e-015
rhumerus -13.8718 26.8186 -69.96
rradius 78.9343
rwrist 11.2274
rhand -11.843 28.4022
rfingers 7.12502
rthumb 14.2083 -1.09181
lclavicle -5.84427e-014 -8.74653e-015
lhumerus -9.14761 -72.1256 91.3356
lradius 79.0151
lwrist -4.66289
lhand -27.8255 42.7403
lfingers 7.12502
lthumb -1.21737 432.717
rfemur -11.8989 4.1914 16.5713
rtibia 7.08816
rfoot -3.61364 -6.20573
rtoes -13.4468
lfemur -20.1879 -9.16604 -8.43949
ltibia 20.758
lfoot -10.5572 13.2445
ltoes -32.3692
361
root 4.32575 17.7317 -8.27622 11.8859 -29.4673 -3.46297
lowerback 7.6303 -0.420852 0.455691
upperback 3.82673 -0.581036 -1.74262
thorax -0.349336 -0.284176 -2.00492
lowerneck -19.7893 3.34698 0.173983
upperneck 41.5299 6.83213 -4.72948
head 19.6781 1.80519 -0.927438
rclavicle -4.57205e-014 -7.95139e-016
rhumerus -12.4707 28.1899 -69.3721
rradius 78.3617
rwrist 11.3613
rhand -12.4105 29.1664
rfingers 7.12502
rthumb 13.6614 -0.365269
lclavicle -4.57205e-014 -7.95139e-016
lhumerus -7.4687 -73.0152 90.0153
lradius 78.1522
lwrist -6.12174
lhand -26.7647 41.1995
lfingers 7.12502
lthumb -0.192825 431.179
rfemur -11.4861 4.06138 17.133
rtibia 5.99673
rfoot -3.03897 -6.17012
rtoes -12.4562
lfemur -20.4035 -9.66757 -7.7603
ltibia 20.6193
lfoot -10.2315 13.5577
ltoes -32.9305
362
root 4.28733 17.7324 -8.3514 12.1032 -29.1435 -3.79298
lowerback 7.87649 -0.387568 1.36451
upperback 3.8742 -0.4737 -1.64688
thorax -0.436773 -0.220547 -2.42565
lowerneck -19.9064 3.24911 0.161495
upperneck 41.2863 6.67774 -4.71592
head 19.5441 1.75757 -0.941987
rclavicle -1.19271e-014 2.3059e-014
rhumerus -10.985 29.5183 -68.688
rradius 77.8356
rwrist 11.677
rhand -12.7027 30.1858
rfingers 7.12502
rthumb 13.3797 0.635378
lclavicle -1.19271e-014 2.3059e-014
lhumerus -5.81603 -73.7044 88.7075
lradius 77.3773
lwrist -7.50108
lhand -25.7069 40.2435
lfingers 7.12502
lthumb 0.828838 430.222
rfemur -11.2566 3.91371 17.72
rtibia 5.1247
rfoot -2.46804 -6.13142
rtoes -11.8894
lfemur -20.6828 -10.3288 -6.9613
ltibia 20.4999
lfoot -10.0455 14.0224
ltoes -32.9462
363
root 4.25022 17.7311 -8.42918 12.3322 -28.8621 -4.07602
lowerback 8.05304 -0.431112 2.13117
upperback 3.97807 -0.473712 -1.43881
thorax -0.429169 -0.211874 -2.64251
lowerneck -20.0601 3.31497 -0.0157533
upperneck 41.0575 6.81563 -4.62698
head 19.4323 1.8042 -0.826238
rclavicle -6.40087e-014 -2.3059e-014
rhumerus -9.08848 31.2396 -67.5495
rradius 77.3069
rwrist 12.0104
rhand -12.8917 31.5167
rfingers 7.12502
rthumb 13.1976 1.95441
lclavicle -6.40087e-014 -2.3059e-014
lhumerus -4.31639 -73.7309 87.6419
lradius 76.7153
lwrist -8.74524
lhand -25.8756 40.9715
lfingers 7.12502
lthumb 0.665886 430.95
rfemur -11.1781 3.79383 18.227
rtibia 4.41972
rfoot -2.00287 -6.0693
rtoes -11.4091
lfemur -21.0023 -11.0708 -6.17396
ltibia 20.3642
lfoot -9.86655 14.6069
ltoes -32.8773
364
root 4.21079 17.7306 -8.50908 12.54 -28.603 -4.21658
lowerback 8.21299 -0.513186 2.65938
upperback 4.08145 -0.539403 -1.16388
thorax -0.41508 -0.239169 -2.65004
lowerneck -20.2043 3.44648 -0.278307
upperneck 40.7492 7.17859 -4.7463
head 19.2922 1.89715 -0.746597
rclavicle 2.78299e-014 1.82882e-014
rhumerus -6.9193 33.1153 -66.1185
rradius 76.7815
rwrist 12.4037
rhand -13.3534 32.856
rfingers 7.12502
rthumb 12.7525 3.26542
lclavicle 2.78299e-014 1.82882e-014
lhumerus -3.34087 -73.2352 87.1405
lradius 76.1875
lwrist -9.82324
lhand -26.3947 41.9331
lfingers 7.12502
lthumb 0.164574 431.913
rfemur -11.1727 3.66871 18.6017
rtibia 3.79228
rfoot -1.67881 -5.99821
rtoes -11.64
lfemur -21.3385 -11.9682 -5.46377
ltibia 20.142
lfoot -9.59354 15.284
ltoes -33.0227
365
root 4.16794 17.7325 -8.59227 12.7275 -28.2532 -4.20395
lowerback 8.42213 -0.563621 3.07734
upperback 4.13198 -0.568149 -0.940985
thorax -0.480136 -0.250638 -2.65159
lowerneck -20.3771 3.43918 -0.581737
upperneck 40.503 7.28927 -4.73455
head 19.1758 1.90394 -0.65248
rclavicle 2.34566e-014 2.14687e-014
rhumerus -4.79107 34.6812 -64.6966
rradius 76.2301
rwrist 12.8449
rhand -13.9567 33.9365
rfingers 7.12502
rthumb 12.1709 4.3106
lclavicle 2.34566e-014 2.14687e-014
lhumerus -2.74023 -72.8113 86.9973
lradius 75.764
lwrist -10.5161
lhand -24.5144 39.3765
lfingers 7.12502
lthumb 1.98055 429.347
rfemur -11.2459 3.43021 18.879
rtibia 3.2715
rfoot -1.47495 -5.95855
rtoes -11.9127
lfemur -21.7068 -12.9233 -4.83071
ltibia 19.7675
lfoot -9.24209 15.9294
ltoes -33.4042
366
root 4.1199 17.7369 -8.6764 12.9267 -27.863 -4.06343
lowerback 8.56171 -0.59795 3.45424
upperback 4.15884 -0.579549 -0.805721
thorax -0.530579 -0.253209 -2.7223
lowerneck -20.3819 3.40649 -0.784681
upperneck 40.1264 7.26486 -4.64273
head 18.9254 1.89597 -0.56751
rclavicle -3.37934e-014 1.94809e-014
rhumerus -2.7074 35.9544 -63.3279
rradius 75.684
rwrist 13.2964
rhand -14.0225 34.6152
rfingers 7.12502
rthumb 12.1074 4.98547
lclavicle -3.37934e-014 1.94809e-014
lhumerus -2.44557 -72.4275 87.0327
lradius 75.5527
lwrist -10.9274
lhand -24.395 39.6393
lfingers 7.12502
lthumb 2.09587 429.609
rfemur -11.4811 3.13189 19.0637
rtibia 2.94766
rfoot -1.40138 -5.99347
rtoes -11.433
lfemur -22.0896 -13.8977 -4.26236
ltibia 19.2492
lfoot -8.84992 16.6435
ltoes -33.904
367
root 4.06981 17.7425 -8.75606 13.1782 -27.465 -3.87181
lowerback 8.55757 -0.605021 3.90963
upperback 4.17628 -0.554373 -0.773413
thorax -0.509872 -0.234222 -2.94792
lowerneck -20.3717 3.41639 -0.880539
upperneck 39.9069 7.24462 -4.48759
head 18.77 1.90986 -0.474892
rclavicle -1.86858e-014 7.95139e-015
rhumerus -0.771877 36.9083 -62.0619
rradius 75.1666
rwrist 13.9423
rhand -13.668 34.9413
rfingers 7.12502
rthumb 12.4492 5.33209
lclavicle -1.86858e-014 7.95139e-015
lhumerus -2.29905 -72.0964 87.0531
lradius 75.5467
lwrist -11.3171
lhand -23.8789 39.8019
lfingers 7.12502
lthumb 2.59431 429.766
rfemur -11.8116 2.81577 19.2003
rtibia 2.68849
rfoot -1.40554 -6.06284
rtoes -10.8851
lfemur -22.522 -15.3429 -3.59391
ltibia 18.6804
lfoot -8.65102 17.8307
ltoes -33.5875
368
root 4.02288 17.7455 -8.82925 13.4517 -27.0107 -3.69951
lowerback 8.54257 -0.609628 4.38891
upperback 4.17857 -0.524 -0.71919
thorax -0.497732 -0.212754 -3.16479
lowerneck -20.4356 3.43002 -0.945093
upperneck 39.8712 7.23737 -4.34105
head 18.7502 1.9233 -0.391835
rclavicle 1.8487e-014 -1.70955e-014
rhumerus 1.08262 37.7497 -60.6957
rradius 74.6871
rwrist 14.6482
rhand -13.6035 35.3228
rfingers 7.12502
rthumb 12.5114 5.71739
lclavicle 1.8487e-014 -1.70955e-014
lhumerus -1.91562 -71.8182 86.9113
lradius 75.5053
lwrist -11.7165
lhand -23.1911 40.4555
lfingers 7.12502
lthumb 3.25857 430.41
rfemur -12.0378 2.44444 19.3573
rtibia 2.24882
rfoot -1.34266 -6.06178
rtoes -11.7859
lfemur -23.0414 -17.4719 -2.69457
ltibia 18.1704
lfoot -8.81631 19.664
ltoes -31.7821
